<svg
  width="138"
  height="138"
  viewBox="0 0 138 138"
  fill="none"
  xmlns="http://www.w3.org/2000/svg">
  <path d="M124.399 2.63956C121.662 -0.0986026 117.144 -0.0986026 114.407 2.63956C114.407 2.63956 114.27 2.77648 114.27 2.91339L111.258 7.43134C109.753 9.62187 110.163 12.6339 111.943 14.5506L116.597 19.2054L114.407 21.396C108.931 16.878 100.855 17.1518 95.7908 22.3543C95.7908 22.3543 95.7908 22.4912 95.6539 22.4912C86.0722 16.4673 74.711 12.9077 62.5284 12.9077C28.171 12.9077 0.24707 40.8369 0.24707 75.2008C0.24707 109.565 28.171 137.494 62.5284 137.494C96.8859 137.494 124.81 109.565 124.81 75.2008C124.81 63.1529 121.251 51.7896 115.365 42.206C115.365 42.206 115.502 42.206 115.502 42.0691C120.566 37.0035 120.84 28.9259 116.46 23.4496L118.65 21.2591L123.304 25.9139C124.399 27.0092 125.905 27.5568 127.274 27.5568C128.369 27.5568 129.464 27.283 130.422 26.5985L134.939 23.5865C135.076 23.5865 135.076 23.4496 135.213 23.4496C137.95 20.7114 137.95 16.1935 135.213 13.4553L124.399 2.63956ZM62.5284 134.482C29.6767 134.482 2.98471 107.785 2.98471 74.927C2.98471 42.0691 29.6767 15.372 62.5284 15.372C95.3802 15.372 122.072 42.0691 122.072 74.927C122.072 107.785 95.3802 134.482 62.5284 134.482ZM113.722 39.7416C112.764 38.2356 111.669 36.8666 110.437 35.4975C111.258 34.5391 112.08 33.5808 112.764 32.6224C113.038 32.3486 112.901 31.9379 112.627 31.6641C112.354 31.3903 111.943 31.5272 111.669 31.801C111.122 32.6224 110.3 33.5808 109.616 34.4022C106.194 30.4319 102.224 26.8723 97.9809 23.8603C102.361 19.7531 109.068 19.89 113.449 23.9972C113.449 23.9972 113.449 24.1341 113.585 24.1341C114.407 24.9556 114.27 26.8723 113.312 29.1997C113.175 29.4736 113.312 29.8843 113.585 30.1581H113.859C114.133 30.1581 114.407 30.0212 114.544 29.7474C115.091 28.5152 115.365 27.4199 115.502 26.4616C117.692 30.8426 117.144 36.182 113.722 39.7416ZM133.16 21.2591L128.779 24.1341C127.684 24.9556 126.042 24.6818 125.084 23.7234L120.43 19.0685L121.935 17.5626C122.483 17.0149 122.483 16.1935 121.935 15.6458C121.388 15.0982 120.566 15.0982 120.019 15.6458L118.513 17.1518L113.859 12.497C112.901 11.5386 112.764 9.89568 113.449 8.80042L116.323 4.41939C117.966 2.77649 120.703 2.91341 122.346 4.5563L133.023 15.2351C134.802 16.878 134.802 19.6162 133.16 21.2591Z" fill="black" />
</svg>