<svg
  width="437"
  height="294"
  viewBox="0 0 437 294"
  fill="none"
  xmlns="http://www.w3.org/2000/svg">
  <path d="M434.274 4.33917H418.532V2.28555C418.532 1.46411 417.985 0.231934 417.3 0.231934H7.06472C6.24343 0.231934 5.01149 1.46411 5.01149 2.28555V12.5537H1.72633C0.905038 12.5537 0.905029 13.1013 0.905029 13.7858V291.983C0.905029 292.804 0.905038 293.215 1.72633 293.215H423.871C424.692 293.215 425.24 292.804 425.24 291.983V286.37H434.137C434.958 286.37 436.19 285.685 436.19 285.001V5.29753C436.327 4.47608 435.095 4.33917 434.274 4.33917ZM7.88603 2.97009H415.795V12.5537H7.88603V2.97009ZM391.156 32.5422H389.376C388.966 32.5422 388.692 32.8161 388.692 33.2268C388.692 33.6375 389.103 33.9113 389.376 33.9113L389.924 34.1851C390.198 34.1851 390.472 34.5959 390.745 34.5959C390.882 34.5959 391.156 33.9113 391.156 33.9113V207.784H391.019C390.472 207.784 389.513 208.058 387.186 209.975C386.913 210.249 386.913 210.66 387.049 210.933C387.186 211.07 387.323 211.207 387.597 211.207C387.734 211.207 387.871 211.207 388.008 211.07C390.198 209.29 390.882 209.154 391.019 209.154H391.156V290.751H66.4716C70.0305 286.643 69.483 280.893 66.8822 277.06C64.4183 273.5 60.3119 270.899 54.5628 269.256C53.194 268.845 51.6883 268.572 50.3195 268.298C47.5818 267.75 44.8442 267.066 42.2434 265.97C38.8214 264.464 35.2625 261.316 34.9887 257.071C34.9887 256.387 34.9887 255.565 35.1256 254.744C35.2624 252.69 35.5362 250.637 34.1674 248.994C31.9773 246.256 27.597 247.488 24.4488 249.952L24.0381 250.363C21.7111 252.28 19.1104 254.333 16.3727 253.649C16.0989 253.649 16.2358 253.649 16.099 253.786C13.2244 255.839 6.65407 256.25 3.91643 254.059V185.195C3.91643 185.058 5.0115 184.921 6.5172 184.647C6.92785 184.647 7.06474 184.236 6.92786 183.826C6.92786 183.415 6.79096 183.141 6.38031 183.278C5.14838 183.415 3.91643 183.689 3.91643 183.826V135.497C4.1902 135.497 4.32709 135.36 4.46397 135.086C4.60086 134.676 4.73773 134.402 4.32708 134.128C4.05332 133.991 3.91643 133.854 3.91643 133.717V109.485C8.0229 110.306 11.5818 111.127 15.2777 111.812C19.3841 112.633 23.6275 113.592 28.1446 114.413C33.483 115.508 39.232 117.151 41.1484 121.669C43.0647 126.324 39.9164 131.39 37.3157 136.045L36.6313 137.277C33.2092 143.164 32.251 150.831 37.3157 153.98C39.0951 155.075 41.1484 155.349 43.2016 155.759C46.0761 156.17 48.54 156.581 49.4982 158.771C50.0457 159.867 50.0457 160.962 49.9088 162.194C49.772 163.289 49.6351 164.522 49.4982 165.617C49.2244 167.807 48.9507 169.998 49.0875 172.188C49.3613 175.474 50.867 179.445 54.5628 180.814C55.2472 181.087 55.9316 181.224 56.7529 181.224C58.9431 181.224 61.8176 180.403 63.597 179.034C63.8708 178.897 64.2815 178.623 64.2815 178.486V223.255C64.2815 230.648 70.3043 236.946 77.6959 236.946H92.8898C92.7529 236.946 92.6161 237.083 92.6161 237.357V237.63C92.6161 239 92.8898 240.232 93.5742 241.601C93.7111 241.875 93.9849 242.011 94.2586 242.011C94.3955 242.011 94.3955 242.012 94.5324 241.875C94.8062 241.738 95.0799 241.327 94.8062 240.916C94.2586 239.821 93.9849 238.589 93.9849 237.494V237.357C93.9849 237.083 93.848 236.946 93.7111 236.946H114.928V245.708C114.928 246.529 115.612 246.529 116.434 246.529H137.377C138.198 246.529 138.335 246.393 138.335 245.708V236.946H216.768C216.631 236.946 216.357 237.904 215.947 238.452C215.673 238.726 215.81 239.136 216.084 239.41C216.221 239.547 216.358 239.547 216.494 239.547C216.631 239.547 216.905 239.547 217.042 239.41C217.589 238.726 218 238.452 218.137 237.083H241.818C241.954 237.083 241.954 236.946 242.091 236.946L288.631 229.69C292.053 229.142 294.517 226.13 294.517 222.707V217.916H369.665C371.992 217.916 373.909 216.41 373.909 214.219V107.294C373.909 104.967 371.992 102.913 369.665 102.913H294.517V98.6688C294.517 95.1092 292.053 92.2341 288.631 91.6865L268.51 88.5376C268.099 87.0316 268.099 85.6625 268.646 84.5673C270.015 81.8291 274.122 80.5969 278.091 79.2279C281.377 78.1326 284.388 77.1742 285.894 75.5313L287.126 73.8885C287.536 73.2039 287.947 72.6563 288.358 72.1086C289.863 70.6027 292.601 69.9181 295.475 70.4658C297.665 70.8765 299.856 71.8348 301.635 73.3408C302.73 74.2992 303.688 75.3944 304.783 76.6266C306.973 79.091 309.164 81.6922 312.586 82.3767C314.639 82.7875 317.787 82.5137 319.977 80.8708C321.209 79.9124 322.03 78.6802 322.167 77.3111C322.304 76.079 321.894 74.8468 321.62 73.8885L320.388 70.6027C319.567 68.4121 318.608 66.2216 318.198 63.8942C316.829 56.0904 323.399 54.0368 330.243 51.8463C331.749 51.2986 333.392 50.8879 334.897 50.3403C338.046 49.1081 339.688 47.1914 339.278 45.2747C338.867 43.4949 337.088 42.6734 335.856 42.1258C333.802 41.3043 331.612 40.7567 329.422 40.346C328.875 40.2091 328.327 40.2091 327.78 40.0722C326.274 39.7984 324.905 39.6615 323.536 39.1138C319.977 37.8817 317.103 35.0066 314.639 32.5422C312.449 30.3517 311.217 28.9826 310.943 25.9706C310.259 17.8931 319.977 16.3871 326.821 15.018H342.015C342.015 16.3871 341.878 16.6609 341.468 17.2085C341.331 17.4824 341.331 17.8931 341.742 18.1669C341.878 18.1669 342.015 18.3038 342.015 18.3038C342.289 18.3038 342.426 18.1669 342.563 17.8931C342.973 17.0716 343.247 16.1133 343.247 15.018L344.89 15.4287C345.164 15.4287 345.437 15.1549 345.574 15.1549H391.43V32.5422H391.156ZM151.612 81.0077V83.7458H102.335V81.0077H151.612ZM240.586 87.8531V129.062C236.479 127.009 231.278 125.777 226.076 125.777C210.608 125.777 197.468 135.908 192.951 149.872C191.308 141.795 188.023 134.265 183.369 127.967L188.023 123.723C189.255 122.628 189.392 120.574 188.297 119.342L186.654 117.562C185.559 116.33 183.506 116.193 182.274 117.288L177.757 121.396C167.764 111.401 153.939 105.103 138.608 105.103C129.437 105.103 120.814 107.294 113.148 111.264L108.905 104.83C108.494 104.145 107.673 104.008 106.989 104.419L100.966 108.389C100.692 108.526 100.418 108.937 100.418 109.211C100.418 109.485 100.418 109.895 100.555 110.306L104.662 116.604C91.521 126.735 83.0343 142.616 83.0343 160.414C83.0343 174.242 88.099 186.974 96.5856 196.695L90.6997 202.993C90.4259 203.267 90.2891 203.677 90.2891 203.951C90.2891 204.362 90.4259 204.636 90.6997 204.909L96.0381 209.838C96.3119 210.112 96.5856 210.249 96.9963 210.249C97.4069 210.249 97.6807 210.112 97.9545 209.838L103.704 203.677C105.757 205.32 108.084 206.963 110.411 208.332L107.947 213.808C106.989 215.999 107.947 218.737 110.137 219.695L113.559 221.338C114.107 221.612 114.791 221.749 115.475 221.749C117.118 221.749 118.761 220.791 119.445 219.148L122.046 213.535C122.73 213.808 123.551 213.945 124.236 214.219L123.415 219.011C123.141 220.654 124.236 222.297 126.015 222.571L128.479 222.981H129.027C130.532 222.981 131.764 221.886 132.038 220.38L132.723 215.862C134.639 215.999 136.555 216.136 138.472 216.136C165.3 216.136 187.886 196.832 192.814 171.367C197.331 185.332 210.472 195.463 225.939 195.463C231.278 195.463 236.205 194.231 240.723 192.177C240.586 192.314 240.449 192.451 240.449 192.725V234.345H77.1484C71.2624 234.345 66.4716 229.279 66.4716 223.392V97.9843C66.4716 92.0972 71.2624 87.8531 77.1484 87.8531H240.586ZM225.529 79.6386H221.422V74.2992C221.422 73.8885 221.148 73.6146 220.738 73.6146C220.327 73.6146 220.053 73.8885 220.053 74.2992V79.6386H217.316V74.2992C217.316 73.8885 217.042 73.6146 216.631 73.6146C216.221 73.6146 215.947 73.8885 215.947 74.2992V79.6386H213.209V74.2992C213.209 73.8885 212.935 73.6146 212.525 73.6146C212.114 73.6146 211.84 73.8885 211.84 74.2992V79.6386H207.734V74.2992C207.734 73.8885 207.46 73.6146 207.049 73.6146C206.639 73.6146 206.365 73.8885 206.365 74.2992V79.6386H203.627V74.2992C203.627 73.8885 203.354 73.6146 202.943 73.6146C202.532 73.6146 202.259 73.8885 202.259 74.2992V79.6386H199.521V74.2992C199.521 73.8885 199.247 73.6146 198.837 73.6146C198.426 73.6146 198.152 73.8885 198.152 74.2992V79.6386H194.046V74.2992C194.046 73.8885 193.772 73.6146 193.361 73.6146C192.951 73.6146 192.677 73.8885 192.677 74.2992V79.6386H189.939V74.2992C189.939 73.8885 189.665 73.6146 189.255 73.6146C188.844 73.6146 188.57 73.8885 188.57 74.2992V79.6386H184.464V70.6027C184.464 70.6027 185.011 70.055 185.148 70.055H225.529C225.665 70.055 225.529 70.6027 225.529 70.6027V79.6386ZM184.464 81.0077H225.529V81.1446L220.875 83.7458H189.802L184.464 81.0077ZM287.673 94.4247C289.726 94.6985 291.232 96.4783 291.232 98.6688V222.981C291.232 225.172 289.726 226.952 287.673 227.225L241.954 234.208V192.862C241.954 192.451 241.681 192.177 241.27 192.177H241.133C252.768 186.564 260.844 174.653 260.844 160.825C260.844 147.408 253.179 135.634 241.954 129.884V87.4423L287.673 94.4247ZM293.97 105.651H369.118C369.939 105.651 370.624 106.473 370.624 107.294V214.219C370.624 215.041 369.939 215.178 369.118 215.178H293.97V105.651ZM258.107 160.688C258.107 178.349 243.734 192.725 226.076 192.725C208.418 192.725 194.046 178.349 194.046 160.688C194.046 143.027 208.418 128.652 226.076 128.652C243.734 128.652 258.107 143.027 258.107 160.688ZM125.742 214.63C127.658 215.041 129.574 215.451 131.491 215.725L130.806 220.243C130.669 221.201 129.711 221.749 128.89 221.612L126.426 221.201C125.468 221.065 124.92 220.106 125.057 219.285L125.742 214.63ZM104.251 200.665L101.103 197.79C91.6579 188.207 85.7719 175.2 85.7719 160.688C85.7719 143.164 94.3955 127.693 107.536 118.11L111.369 115.508C119.308 110.717 128.479 107.979 138.472 107.979C167.491 107.979 191.171 131.664 191.171 160.688C191.171 189.713 167.491 213.398 138.472 213.398C125.468 213.398 113.559 208.606 104.251 200.665ZM120.814 213.261L118.213 218.737C117.529 220.243 115.612 220.928 114.107 220.243L110.684 218.6C109.179 217.916 108.494 215.999 109.179 214.493L111.643 209.154C114.654 210.796 117.665 212.166 120.814 213.261ZM99.3233 199.844C100.145 200.665 100.966 201.35 101.787 202.171L97.1332 207.237L93.848 204.225L98.6389 199.159L99.3233 199.844ZM110 113.181C108.905 113.866 107.947 114.413 106.989 115.235L103.704 110.306L107.399 107.842L110.684 112.907L110 113.181ZM178.578 122.491L183.095 118.384C183.78 117.699 184.875 117.836 185.559 118.52L187.202 120.3C187.886 120.985 187.749 122.08 187.065 122.765L182.411 126.872C181.316 125.366 179.947 123.997 178.578 122.491ZM117.392 237.083H121.498C121.224 237.083 121.498 237.22 121.498 237.494V241.19C121.498 241.601 121.772 241.875 122.183 241.875C122.593 241.875 122.867 241.601 122.867 241.19V237.494C122.867 237.22 122.183 237.083 121.909 237.083H126.289C126.015 237.083 125.605 237.22 125.605 237.494V241.19C125.605 241.601 125.878 241.875 126.289 241.875C126.7 241.875 126.973 241.601 126.973 241.19V237.494C126.973 237.22 126.973 237.083 126.7 237.083H131.08C130.806 237.083 131.08 237.22 131.08 237.494V241.19C131.08 241.601 131.354 241.875 131.764 241.875C132.175 241.875 132.449 241.601 132.449 241.19V237.494C132.449 237.22 131.901 237.083 131.627 237.083H135.186V243.928H117.392V237.083ZM319.567 15.2918C313.954 16.6609 308.616 19.6729 309.164 26.3814C309.437 29.8041 310.806 31.447 313.133 33.7744C315.734 36.3757 318.745 39.3876 322.578 40.7567C324.084 41.3043 325.589 41.4412 327.095 41.7151C327.643 41.852 328.19 41.852 328.738 41.9889C330.791 42.3996 332.981 42.9472 334.897 43.6318C336.54 44.3163 337.361 44.864 337.498 45.8223C337.909 47.6021 335.171 48.8343 334.076 49.3819C332.707 49.9296 331.202 50.4772 329.559 50.8879C322.715 53.0784 314.913 55.4059 316.555 64.4418C316.966 66.9062 317.924 69.0967 318.745 71.4241C319.156 72.5194 319.567 73.4777 319.977 74.573C320.251 75.3944 320.662 76.4897 320.525 77.4481C320.388 78.5433 319.84 79.3648 318.882 80.0493C317.103 81.4184 314.365 81.6922 312.586 81.2815C309.574 80.7338 307.658 78.4064 305.468 75.9421C304.373 74.7099 303.278 73.4777 302.183 72.5194C300.266 70.8765 297.939 69.7812 295.475 69.3705C292.19 68.6859 289.042 69.5074 287.126 71.4241C286.578 71.9717 286.031 72.6563 285.62 73.3408C285.209 73.8885 284.935 74.4361 284.525 74.8468C283.293 76.3528 280.418 77.1743 277.27 78.1326C273.027 79.5017 268.646 80.8708 267.004 84.1566C266.319 85.3887 266.319 86.8947 266.593 88.4007L241.544 84.8411C241.407 84.8411 241.407 85.1149 241.27 85.1149H225.529L227.856 83.1982C227.856 83.1982 227.856 82.9244 227.992 82.9244C228.129 82.9244 228.129 82.7875 228.129 82.6506C228.129 82.5136 228.266 82.5136 228.266 82.3767C228.266 82.2398 228.266 82.2398 228.403 82.1029V70.3288C228.403 68.8228 227.308 67.18 225.665 67.18H185.285C183.643 67.18 181.863 68.9598 181.863 70.3288V81.6922L182.137 81.8291C182.137 81.966 182.274 81.966 182.274 82.1029C182.274 82.2398 182.411 82.2398 182.411 82.3767C182.411 82.5136 182.548 82.5136 182.548 82.6506C182.548 82.7875 182.685 82.7875 182.821 82.7875C182.821 82.7875 182.821 83.1982 182.958 83.1982L185.285 85.1149H154.624V78.954C154.624 78.1326 153.529 78.2695 152.707 78.2695H125.878V74.8468C125.878 74.1623 125.605 73.6146 124.92 73.4777L93.5742 69.3705L96.175 66.4954C96.7225 65.9478 96.7225 65.1263 96.0381 64.5787L82.213 51.9832C81.6655 51.4355 80.8442 51.5725 80.2967 52.1201L75.9164 56.9119C75.6427 57.1857 75.5058 57.5964 75.5058 57.8702C75.5058 58.2809 75.6427 58.5548 75.9164 58.8286L89.7415 71.4241C89.7415 71.4241 89.8784 71.4241 89.8784 71.561L90.0153 71.6979C90.1522 71.6979 90.1522 71.8348 90.2891 71.8348L122.867 76.079V78.2695H100.555C99.7339 78.2695 99.5971 78.2695 99.5971 78.954V85.1149H77.4221C70.0305 85.1149 64.0077 90.5912 64.0077 97.9843V175.337C64.0077 175.474 63.7339 175.748 63.7339 175.885C63.8708 176.843 63.0495 177.528 62.502 178.075C60.4488 179.581 56.7529 180.403 54.8366 179.718C51.8252 178.486 50.4564 174.927 50.3195 172.188C50.1826 170.135 50.4564 168.081 50.7301 165.891C50.867 164.795 51.0039 163.563 51.1408 162.331C51.2776 161.099 51.2777 159.593 50.5932 158.224C49.2244 155.486 46.213 154.938 43.2016 154.527C41.2853 154.253 39.232 153.98 37.8632 153.021C33.0723 150.009 35.1256 142.479 37.7263 138.235L38.4107 137.003C41.2853 132.211 44.4335 126.735 42.3803 121.532C40.3271 116.33 34.0305 114.55 28.2815 113.455C23.7643 112.633 19.6579 111.675 15.5514 110.854C11.7187 110.032 8.0229 109.211 3.91643 108.389V15.4287H319.567V15.2918ZM78.6541 57.8702L81.118 55.1321L92.8898 65.8109L90.4259 68.549L78.6541 57.8702ZM3.77956 255.155C6.5172 257.208 13.4982 256.524 16.5096 254.607C19.6579 255.428 22.5324 252.964 24.8594 251.047L25.2701 250.637C27.3233 248.994 31.156 247.214 33.0723 249.541C34.0305 250.774 33.8936 252.416 33.7567 254.333C33.6199 255.155 33.6199 255.976 33.6199 256.798C33.8936 261.726 37.8632 265.286 41.6959 266.929C44.2967 268.161 47.3081 268.845 50.0457 269.393C51.4145 269.667 52.7834 270.078 54.1522 270.351C59.6275 271.857 63.4602 274.322 65.7872 277.608C68.1142 281.03 68.6617 286.78 65.2396 289.929C65.1027 290.066 64.9659 290.477 65.1028 290.477H3.91643V255.155H3.77956ZM422.639 290.477H392.525V15.2918H422.639V290.477ZM433.589 283.632H425.376V13.7858C425.376 12.9644 424.829 12.5537 424.008 12.5537H418.532V7.07733H433.589V283.632Z" fill="black" />
</svg>