<svg
  width="486"
  height="95"
  viewBox="0 0 486 95"
  fill="none"
  xmlns="http://www.w3.org/2000/svg">
  <path d="M42.0114 64.7638V64.3531C42.0114 64.2161 41.7377 63.9423 41.7377 63.9423H48.8555V65.996C48.8555 67.7758 50.2243 69.4187 52.0038 69.4187H61.1749C62.9544 69.4187 63.9126 67.7758 63.9126 65.996V64.0792H141.935V65.859C141.935 67.6388 143.578 69.2817 145.357 69.2817H154.529C156.308 69.2817 158.361 67.6388 158.361 65.859V63.8054H197.373C198.057 67.9127 201.616 72.0199 206.133 72.0199H210.65C217.905 81.6035 229.129 88.5858 241.996 90.0918C242.544 92.4192 244.597 94.199 247.061 94.199C249.525 94.199 251.715 92.2823 252.126 89.9548C265.129 88.4489 276.354 81.7404 283.608 71.6092C283.882 71.7461 284.019 72.0199 284.293 72.0199H288.947C292.779 72.0199 296.065 69.2817 297.297 65.1745H354.376L462.787 65.3114C465.799 65.3114 468.81 64.49 471.411 62.8471C477.57 58.7398 485.099 52.579 485.099 45.5967C485.099 38.6143 477.707 32.3166 471.411 28.3462C468.81 26.7034 465.935 25.8819 462.787 25.8819L297.844 26.0188C297.16 21.7747 293.601 18.6258 289.084 18.6258H283.882C283.745 18.6258 283.608 18.4889 283.471 18.4889C275.259 7.26241 261.981 0.00628662 246.924 0.00628662C232.004 0.00628662 218.726 7.67314 210.513 18.6258H205.996C202.164 18.6258 198.878 21.3639 197.646 24.1021H158.224V22.5961C158.224 20.8163 156.308 18.7627 154.392 18.7627H145.221C143.441 18.7627 141.798 20.6794 141.798 22.5961V24.3759H63.7757V22.5961C63.7757 20.8163 62.9544 18.7627 61.038 18.7627H51.8669C50.0875 18.7627 48.7186 20.6794 48.7186 22.5961V24.239H41.8745V23.9652C41.8745 19.4472 38.0418 16.1614 33.5247 16.1614H9.70724C5.19013 16.1614 0.946777 19.4472 0.946777 23.9652V64.7638C0.946777 69.2817 5.19013 72.2937 9.70724 72.2937H33.6616C38.1787 72.1568 42.0114 69.1448 42.0114 64.7638ZM247.061 92.693C245.418 92.693 243.913 91.5978 243.365 90.0918C244.597 90.2287 245.829 90.2287 247.061 90.2287C248.293 90.2287 249.525 90.2287 250.757 90.0918C250.209 91.5978 248.84 92.693 247.061 92.693ZM469.905 30.8106C474.559 33.8226 482.361 39.8465 482.361 45.8705C482.361 49.7039 479.213 53.2635 475.791 56.2755C475.654 56.1386 475.517 55.7279 475.243 55.7279H465.525C465.114 55.7279 464.84 56.0017 464.84 56.4124C464.84 56.8231 465.114 57.0969 465.525 57.0969H474.559C472.916 58.466 471.411 59.6982 470.042 60.6565C467.989 62.0256 465.525 62.8471 462.924 62.8471L298.118 62.984V35.1916H301.814C302.224 35.1916 302.498 34.9178 302.498 34.5071C302.498 34.0964 302.224 33.8226 301.814 33.8226H298.118V28.757H462.924C465.251 28.757 467.715 29.4415 469.905 30.8106ZM289.221 21.5008C292.643 21.5008 295.243 23.9652 295.243 27.251V62.7102C295.243 66.1329 292.506 69.2817 289.221 69.2817H285.388C289.768 62.4363 292.232 54.085 292.232 45.3228C292.232 36.5607 289.768 28.2093 285.388 21.3639H289.221V21.5008ZM247.061 2.74445C270.468 2.74445 289.494 21.7747 289.494 45.1859C289.494 68.5972 270.468 87.6274 247.061 87.6274C223.654 87.6274 204.627 68.5972 204.627 45.1859C204.627 21.7747 223.654 2.74445 247.061 2.74445ZM205.996 21.5008H208.734C204.354 28.3462 201.89 36.6976 201.89 45.4598C201.89 54.2219 204.354 62.5733 208.734 69.4187H205.996C202.574 69.4187 199.289 66.1329 199.289 62.8471V27.3879C199.426 23.9652 202.711 21.5008 205.996 21.5008ZM196.688 26.9772V54.3588H193.54C193.129 54.3588 192.856 54.6326 192.856 55.0433C192.856 55.454 193.129 55.7279 193.54 55.7279H196.688V61.2042H158.361V26.9772H196.688ZM155.624 66.1329C155.624 66.4067 155.35 66.6805 155.076 66.6805H145.357C145.084 66.6805 144.81 66.4067 144.81 66.1329V22.1854C144.81 21.9116 145.084 21.6378 145.357 21.6378H155.076C155.35 21.6378 155.624 21.9116 155.624 22.1854V66.1329ZM141.935 27.251V38.0667H136.323C135.913 38.0667 135.639 38.3405 135.639 38.7513C135.639 39.162 135.913 39.4358 136.323 39.4358H141.935V61.478H63.9126V27.251H141.935ZM62.5437 66.1329C62.5437 66.4067 62.27 66.6805 61.9962 66.6805H52.2776C52.0038 66.6805 51.7301 66.4067 51.7301 66.1329V22.1854C51.7301 21.9116 52.0038 21.6378 52.2776 21.6378H61.9962C62.27 21.6378 62.5437 21.9116 62.5437 22.1854V66.1329ZM48.8555 61.2042H34.0723C31.4715 61.2042 29.692 59.2875 29.692 56.8231V49.1563C29.692 49.0194 29.4183 49.0194 29.4183 49.0194H39.2738V52.579C39.2738 53.4004 39.8213 53.948 40.6426 53.948C41.4639 53.948 42.0114 53.4004 42.0114 52.579V36.15C42.0114 35.3286 41.4639 34.7809 40.6426 34.7809C39.8213 34.7809 39.2738 35.3286 39.2738 36.15V39.2989H29.692V31.7689C29.692 29.3046 31.6084 26.9772 34.0723 26.9772H48.8555V61.2042ZM26.9544 31.7689V39.2989H9.15971V24.5128C9.15971 23.5545 9.84412 23.0068 10.8023 23.0068H32.5666C33.5247 23.0068 34.346 23.0068 34.346 24.3759H34.0723C29.9658 24.239 26.9544 27.7986 26.9544 31.7689ZM8.61218 42.037H39.2738V46.1443H8.61218C8.06465 46.1443 7.79088 45.3228 7.79088 44.7752V43.6799C7.79088 43.2692 8.06465 42.037 8.61218 42.037ZM9.15971 48.8825H26.8175C26.8175 48.8825 26.9544 48.8825 26.9544 49.0194V56.8231C26.9544 60.9304 30.1027 63.9423 34.0723 63.9423H34.346C34.346 65.3114 33.5247 65.3114 32.5666 65.3114H10.8023C9.84412 65.3114 9.15971 65.1745 9.15971 64.0792V48.8825ZM3.68442 64.7638V23.9652C3.68442 20.9532 6.69583 18.8996 9.70724 18.8996H33.6616C36.673 18.8996 39.2738 21.0901 39.2738 23.9652V24.3759H35.7148C35.7148 23.0068 34.2091 21.6378 32.5666 21.6378H10.8023C9.02282 21.6378 7.79088 22.733 7.79088 24.5128V40.2572C6.42206 40.668 5.05324 42.174 5.05324 43.8169V44.9121C5.05324 46.6919 6.42206 48.061 7.79088 48.4717V64.2161C7.79088 65.996 9.02282 66.8174 10.8023 66.8174H32.5666C34.346 66.8174 35.7148 65.4483 35.7148 64.0792H39C39 64.0792 39.1369 64.3531 39.1369 64.49V64.9007C39.1369 67.9127 36.5361 69.6925 33.5247 69.6925H9.70724C6.69583 69.4187 3.68442 67.6388 3.68442 64.7638Z" fill="black" />
</svg>