<svg
  width="284"
  height="378"
  viewBox="0 0 284 378"
  fill="none"
  xmlns="http://www.w3.org/2000/svg">
  <path d="M51.2737 -76.4028C57.2965 -76.4028 62.2243 -81.3315 62.2243 -87.3555C62.2243 -93.3794 57.2965 -98.3081 51.2737 -98.3081C45.2509 -98.3081 40.3231 -93.3794 40.3231 -87.3555C40.3231 -81.3315 45.2509 -76.4028 51.2737 -76.4028ZM51.2737 -95.5699C55.7908 -95.5699 59.4866 -91.8734 59.4866 -87.3555C59.4866 -82.8375 55.7908 -79.141 51.2737 -79.141C46.7566 -79.141 43.0608 -82.8375 43.0608 -87.3555C43.0608 -91.8734 46.7566 -95.5699 51.2737 -95.5699ZM237.707 -51.7594C238.118 -51.7594 238.392 -52.0332 238.392 -52.4439V-57.7833C238.392 -58.1941 238.118 -58.4679 237.707 -58.4679C237.297 -58.4679 237.023 -58.1941 237.023 -57.7833V-52.4439C237.023 -52.0332 237.297 -51.7594 237.707 -51.7594ZM237.707 -36.4257C238.118 -36.4257 238.392 -36.6995 238.392 -37.1102V-40.396C238.392 -40.8067 238.118 -41.0806 237.707 -41.0806C237.297 -41.0806 237.023 -40.8067 237.023 -40.396V-37.1102C237.023 -36.6995 237.297 -36.4257 237.707 -36.4257ZM237.707 -25.8838C238.118 -25.8838 238.392 -26.1576 238.392 -26.5683V-32.1815C238.392 -32.5923 238.118 -32.8661 237.707 -32.8661C237.297 -32.8661 237.023 -32.5923 237.023 -32.1815V-26.5683C237.023 -26.2945 237.297 -25.8838 237.707 -25.8838ZM237.707 -6.85355C238.118 -6.85355 238.392 -7.12736 238.392 -7.53809V-11.0977C238.392 -11.5084 238.118 -11.7822 237.707 -11.7822C237.297 -11.7822 237.023 -11.5084 237.023 -11.0977V-7.53809C237.023 -7.12736 237.297 -6.85355 237.707 -6.85355ZM237.707 6.42653C237.297 6.42653 237.023 6.70035 237.023 7.11107V12.8612C237.023 13.2719 237.297 13.5458 237.707 13.5458C238.118 13.5458 238.392 13.2719 238.392 12.8612V7.11107C238.392 6.83725 238.118 6.42653 237.707 6.42653ZM229.494 2.04548C229.084 2.04548 228.81 2.31929 228.81 2.73002V6.15272C228.81 6.56344 229.084 6.83726 229.494 6.83726C229.905 6.83726 230.179 6.56344 230.179 6.15272V2.73002C230.179 2.31929 229.905 2.04548 229.494 2.04548ZM211.7 6.42653C211.289 6.42653 211.015 6.70035 211.015 7.11107V9.71233C211.015 10.123 211.289 10.3969 211.7 10.3969C212.11 10.3969 212.384 10.123 212.384 9.71233V7.11107C212.384 6.83725 212.11 6.42653 211.7 6.42653ZM221.281 1.90857C220.871 1.90857 220.597 2.18239 220.597 2.59311V6.15272C220.597 6.56344 220.871 6.83726 221.281 6.83726C221.692 6.83726 221.966 6.56344 221.966 6.15272V2.59311C221.966 2.3193 221.692 1.90857 221.281 1.90857ZM55.6539 4.236C55.2433 4.236 54.9695 4.50982 54.9695 4.92054V8.48015C54.9695 8.89088 55.2433 9.16469 55.6539 9.16469C56.0646 9.16469 56.3384 8.89088 56.3384 8.48015V4.92054C56.3384 4.50982 56.0646 4.236 55.6539 4.236ZM40.5969 9.3016C40.1863 9.3016 39.9125 9.57541 39.9125 9.98614V12.5874C39.9125 12.9981 40.1863 13.2719 40.5969 13.2719C41.0076 13.2719 41.2813 12.9981 41.2813 12.5874V9.98614C41.2813 9.57541 41.0076 9.3016 40.5969 9.3016ZM29.6463 -32.7292C29.2357 -32.7292 28.9619 -32.4553 28.9619 -32.0446V-29.8541C28.9619 -29.4434 29.2357 -29.1696 29.6463 -29.1696C30.057 -29.1696 30.3308 -29.4434 30.3308 -29.8541V-32.0446C30.3308 -32.4553 30.057 -32.7292 29.6463 -32.7292ZM29.6463 -18.2169C29.2357 -18.2169 28.9619 -17.9431 28.9619 -17.5324V-15.3419C28.9619 -14.9311 29.2357 -14.6573 29.6463 -14.6573C30.057 -14.6573 30.3308 -14.9311 30.3308 -15.3419V-17.5324C30.3308 -17.9431 30.057 -18.2169 29.6463 -18.2169ZM29.6463 -6.85355C29.2357 -6.85355 28.9619 -6.57973 28.9619 -6.16901V-1.37723C28.9619 -0.966499 29.2357 -0.69268 29.6463 -0.69268C30.057 -0.69268 30.3308 -0.966499 30.3308 -1.37723V-6.16901C30.3308 -6.57973 30.057 -6.85355 29.6463 -6.85355ZM29.6463 3.82527C29.2357 3.82527 28.9619 4.09909 28.9619 4.50981V8.48015C28.9619 8.89088 29.2357 9.16469 29.6463 9.16469C30.057 9.16469 30.3308 8.89088 30.3308 8.48015V4.50981C30.3308 4.09909 30.057 3.82527 29.6463 3.82527ZM20.0646 -48.8843C19.6539 -48.8843 19.3802 -48.6105 19.3802 -48.1998V-44.0925C19.3802 -43.6818 19.6539 -43.408 20.0646 -43.408C20.4752 -43.408 20.749 -43.6818 20.749 -44.0925V-48.1998C20.749 -48.6105 20.4752 -48.8843 20.0646 -48.8843ZM20.0646 -65.9978C19.6539 -65.9978 19.3802 -65.724 19.3802 -65.3133V-61.3429C19.3802 -60.9322 19.6539 -60.6584 20.0646 -60.6584C20.4752 -60.6584 20.749 -60.9322 20.749 -61.3429V-65.3133C20.749 -65.724 20.4752 -65.9978 20.0646 -65.9978ZM20.0646 -39.9853C19.6539 -39.9853 19.3802 -39.7115 19.3802 -39.3008V-37.6578C19.3802 -37.2471 19.6539 -36.9733 20.0646 -36.9733C20.4752 -36.9733 20.749 -37.2471 20.749 -37.6578V-39.3008C20.749 -39.7115 20.4752 -39.9853 20.0646 -39.9853ZM20.0646 -28.3481C19.6539 -28.3481 19.3802 -28.0743 19.3802 -27.6636V-19.4491C19.3802 -19.0384 19.6539 -18.7645 20.0646 -18.7645C20.4752 -18.7645 20.749 -19.0384 20.749 -19.4491V-27.6636C20.749 -27.9374 20.4752 -28.3481 20.0646 -28.3481ZM20.0646 7.93252C19.6539 7.93252 19.3802 8.20633 19.3802 8.61706V12.9981C19.3802 13.4088 19.6539 13.6827 20.0646 13.6827C20.4752 13.6827 20.749 13.4088 20.749 12.9981V8.61706C20.749 8.20633 20.4752 7.93252 20.0646 7.93252ZM275.076 98.2918H271.243C266.726 98.2918 263.03 101.715 263.03 106.232V339.934L271.791 371.286C271.928 371.834 272.475 372.245 273.16 372.245C273.844 372.245 274.255 371.834 274.529 371.286L283.426 339.934C283.426 339.798 283.563 339.661 283.563 339.524V106.369C283.563 101.715 279.593 98.2918 275.076 98.2918ZM273.981 328.845V130.465C273.981 130.054 273.707 129.781 273.297 129.781C272.886 129.781 272.612 130.054 272.612 130.465V328.571L265.768 336.786V128.412H280.825V333.5L273.981 335.69V328.845ZM265.768 122.935H280.825V127.042H265.768V122.935ZM280.825 121.566H265.768V116.09H280.825V121.566ZM271.106 101.03H274.939C277.951 101.03 280.688 103.22 280.688 106.232V114.721H265.631V106.232C265.768 103.22 268.095 101.03 271.106 101.03ZM273.16 365.536L271.106 358.417H275.076L273.16 365.536ZM275.487 357.048H270.696L265.768 339.387V338.976L272.612 330.762V336.649C272.612 336.922 272.612 337.059 272.749 337.196C272.886 337.333 273.297 337.333 273.433 337.333L280.688 334.869V339.387L275.487 357.048ZM252.354 54.4812H245.236V45.3084C245.236 44.487 245.236 43.5286 244.551 43.5286H221.692C220.871 43.5286 220.597 44.487 220.597 45.3084V154.972C220.597 155.793 220.871 155.793 221.692 155.793H221.966V313.922C221.966 314.743 222.787 315.976 223.471 315.976H242.635C243.456 315.976 243.867 314.743 243.867 313.922V155.793H244.551C245.373 155.793 245.236 155.656 245.236 154.972V131.697C246.605 133.203 248.521 133.888 250.3 133.888H252.354C253.175 133.888 253.449 133.477 253.449 132.793V55.7134C253.449 54.892 253.038 54.4812 252.354 54.4812ZM223.335 46.2668H242.498V153.055H242.635H223.335V46.2668ZM241.129 313.237H224.703V155.793H241.129V313.237ZM250.711 131.15H250.3C248.932 131.15 247.973 130.328 247.973 128.822V126.495C247.973 125.126 248.932 124.031 250.3 124.031C250.574 124.031 250.711 124.031 250.711 123.894V131.15ZM250.711 121.429C250.711 121.292 250.163 121.292 249.89 121.292C247.973 121.292 246.605 122.251 245.236 123.757V57.3563H250.711V121.429ZM239.897 315.976H226.209C225.388 315.976 224.84 316.523 224.84 317.345C224.84 318.166 225.388 318.714 226.209 318.714H239.897C240.719 318.714 241.266 318.166 241.266 317.345C241.266 316.523 240.719 315.976 239.897 315.976ZM181.449 59.9576H158.452C158.316 59.9576 157.494 60.5052 157.494 60.5052V58.9992C157.494 57.4932 156.673 55.8503 155.03 55.8503H149.144C147.639 55.8503 146.544 57.4932 146.544 58.9992V60.6421C146.544 60.5052 145.859 59.9576 145.586 59.9576H26.0874V55.1658C26.0874 53.5229 25.403 51.7431 23.7604 51.7431H15.9581C14.3155 51.7431 12.3992 53.6598 12.3992 55.1658V59.9576H5.96575C2.68058 59.9576 0.079834 63.1064 0.079834 66.3922V349.655C0.079834 352.941 2.68058 355.679 5.96575 355.679H13.768V375.941C13.768 376.489 14.0418 376.9 14.4525 377.173C14.5893 377.31 14.8631 377.31 14.9999 377.31C15.2737 377.31 15.5475 377.173 15.8213 377.036L20.2015 374.025L24.5817 377.036C24.9923 377.31 25.2662 377.31 25.6768 377.173C26.0875 376.9 26.0874 376.489 26.0874 375.941V355.679H145.586C145.859 355.679 146.544 355.405 146.544 355.268V356.911C146.544 358.554 147.639 359.786 149.144 359.786H155.03C156.536 359.786 157.494 358.554 157.494 356.911V355.405C157.494 355.405 158.179 355.679 158.452 355.679H181.449C191.03 355.679 198.696 347.738 198.696 338.155V77.8925C198.696 68.309 191.03 59.9576 181.449 59.9576ZM15.2737 55.3027C15.2737 55.1658 16.0951 54.6182 16.0951 54.6182H23.8973C24.0342 54.6182 23.4866 55.3027 23.4866 55.3027V60.0945H15.2737V55.3027ZM23.4866 373.34L20.749 371.286C20.3384 371.013 19.9277 371.013 19.3802 371.286L16.6425 373.34V355.679H23.4866V373.34ZM145.722 352.941H141.205V350.887C141.205 350.476 140.932 350.203 140.521 350.203C140.11 350.203 139.836 350.476 139.836 350.887V352.941H6.1026C4.32313 352.941 2.95433 351.435 2.95433 349.655V66.3922C2.95433 64.6124 4.32313 62.6957 6.1026 62.6957H145.722C145.996 62.6957 146.681 63.1064 146.681 62.9695V353.078C146.681 352.941 145.996 352.941 145.722 352.941ZM154.893 356.911C154.757 357.048 154.893 357.048 154.893 356.911L149.555 357.048C149.555 357.048 149.418 357.048 149.418 356.911V58.7254C149.418 58.7254 149.418 58.5885 149.555 58.5885H154.757C154.757 58.5885 154.893 58.5885 154.893 58.7254V356.911ZM195.958 338.155C195.958 346.232 189.662 352.941 181.449 352.941H174.057V349.244C174.057 348.833 173.783 348.56 173.373 348.56C172.962 348.56 172.688 348.833 172.688 349.244V352.941H158.589C158.452 352.941 157.631 352.804 157.631 352.941V63.1064C157.631 63.1064 158.316 62.6957 158.589 62.6957H181.586C189.662 62.6957 196.095 69.815 196.095 77.8925V338.155H195.958Z" fill="black" />
</svg>