<svg
  width="348"
  height="352"
  viewBox="0 0 348 352"
  fill="none"
  xmlns="http://www.w3.org/2000/svg">
  <path d="M173.327 307.076C172.916 307.076 172.643 307.35 172.643 307.761V338.976C172.643 339.387 172.916 339.661 173.327 339.661C173.738 339.661 174.012 339.387 174.012 338.976V307.761C174.012 307.487 173.738 307.076 173.327 307.076ZM173.327 73.6483C172.916 73.6483 172.643 73.9221 172.643 74.3328V289.278C172.643 289.689 172.916 289.963 173.327 289.963C173.738 289.963 174.012 289.689 174.012 289.278V74.3328C174.012 73.9221 173.738 73.6483 173.327 73.6483ZM347.167 316.934C347.578 316.934 347.852 316.66 347.852 316.249V313.237C347.852 312.827 347.578 312.553 347.167 312.553C346.757 312.553 346.483 312.827 346.483 313.237V316.249C346.483 316.66 346.757 316.934 347.167 316.934ZM347.167 323.779C347.578 323.779 347.852 323.505 347.852 323.095V321.589C347.852 321.178 347.578 320.904 347.167 320.904C346.757 320.904 346.483 321.178 346.483 321.589V323.095C346.483 323.505 346.757 323.779 347.167 323.779ZM347.167 327.339C346.757 327.339 346.483 327.613 346.483 328.023V331.72C346.483 332.131 346.757 332.404 347.167 332.404C347.578 332.404 347.852 332.131 347.852 331.72V328.023C347.852 327.613 347.578 327.339 347.167 327.339ZM338.954 328.845C338.544 328.845 338.27 329.119 338.27 329.529V331.035C338.27 331.446 338.544 331.72 338.954 331.72C339.365 331.72 339.639 331.446 339.639 331.035V329.529C339.639 329.119 339.365 328.845 338.954 328.845ZM338.954 347.054C338.544 347.054 338.27 347.327 338.27 347.738V349.244C338.27 349.655 338.544 349.929 338.954 349.929C339.365 349.929 339.639 349.655 339.639 349.244V347.738C339.639 347.327 339.365 347.054 338.954 347.054ZM328.688 305.023C328.278 305.023 328.004 305.297 328.004 305.707V306.94C328.004 307.35 328.278 307.624 328.688 307.624C329.099 307.624 329.373 307.35 329.373 306.94V305.707C329.373 305.434 329.099 305.023 328.688 305.023ZM318.422 301.052C318.833 301.052 319.107 300.779 319.107 300.368V298.314C319.107 297.904 318.833 297.63 318.422 297.63C318.012 297.63 317.738 297.904 317.738 298.314V300.368C317.738 300.779 318.012 301.052 318.422 301.052ZM318.422 344.452C318.012 344.452 317.738 344.726 317.738 345.137V348.149C317.738 348.56 318.012 348.833 318.422 348.833C318.833 348.833 319.107 348.56 319.107 348.149V345.137C319.107 344.726 318.833 344.452 318.422 344.452ZM338.954 336.785C338.544 336.785 338.27 337.059 338.27 337.47V340.893C338.27 341.303 338.544 341.577 338.954 341.577C339.365 341.577 339.639 341.303 339.639 340.893V337.47C339.639 337.196 339.365 336.785 338.954 336.785ZM318.422 309.13C318.833 309.13 319.107 308.856 319.107 308.446V306.392C319.107 305.981 318.833 305.707 318.422 305.707C318.012 305.707 317.738 305.981 317.738 306.392V308.446C317.738 308.719 318.012 309.13 318.422 309.13ZM318.422 317.755C318.833 317.755 319.107 317.481 319.107 317.071V315.017C319.107 314.606 318.833 314.333 318.422 314.333C318.012 314.333 317.738 314.606 317.738 315.017V317.071C317.738 317.481 318.012 317.755 318.422 317.755ZM289.677 343.22C289.266 343.22 288.993 343.494 288.993 343.905V348.149C288.993 348.56 289.266 348.833 289.677 348.833C290.088 348.833 290.361 348.56 290.361 348.149V343.905C290.361 343.494 290.088 343.22 289.677 343.22ZM277.358 348.833C276.947 348.833 276.673 349.107 276.673 349.518V351.024C276.673 351.435 276.947 351.708 277.358 351.708C277.768 351.708 278.042 351.435 278.042 351.024V349.518C278.042 349.107 277.768 348.833 277.358 348.833ZM347.167 261.486C347.578 261.486 347.852 261.212 347.852 260.802V258.611C347.852 258.2 347.578 257.926 347.167 257.926C346.757 257.926 346.483 258.2 346.483 258.611V260.802C346.483 261.075 346.757 261.486 347.167 261.486ZM346.483 237.664V239.855C346.483 240.265 346.757 240.539 347.167 240.539C347.578 240.539 347.852 240.265 347.852 239.855V237.664C347.852 237.253 347.578 236.98 347.167 236.98C346.757 236.98 346.483 237.253 346.483 237.664ZM178.802 104.453C178.392 104.453 178.118 104.726 178.118 105.137V320.083C178.118 320.493 178.392 320.767 178.802 320.767C179.213 320.767 179.487 320.493 179.487 320.083V105.137C179.487 104.726 179.213 104.453 178.802 104.453ZM17.5553 76.3864H19.3347V148.811C19.3347 154.561 23.9887 159.9 29.7378 159.9H42.7416L46.9849 173.18C48.3537 177.835 52.5971 180.437 57.5249 180.437H87.3652C92.156 180.437 96.3994 177.835 97.9051 173.18L102.148 159.9H115.152C120.901 159.9 126.24 154.561 126.24 148.811V76.3864H127.335C132.81 76.3864 137.19 72.4161 137.19 66.9398V24.3614H139.517C142.529 24.3614 145.403 22.5816 145.403 19.5696V-112.547C145.403 -115.559 142.529 -118.023 139.517 -118.023H138.559V-120.487C138.559 -124.868 134.589 -128.976 130.209 -128.976H14.9545C10.5743 -128.976 7.15221 -125.005 7.15221 -120.487V-118.023H5.6465C2.63509 -118.023 0.308105 -115.559 0.308105 -112.547V19.5696C0.308105 22.5816 2.49821 24.3614 5.6465 24.3614H7.15221V66.9398C7.01533 72.553 11.9431 76.3864 17.5553 76.3864ZM22.0724 121.566H79.0153C79.426 121.566 79.6997 121.292 79.6997 120.882C79.6997 120.471 79.426 120.197 79.0153 120.197H22.0724V111.983H27.9583C27.8214 111.983 27.5476 112.256 27.5476 112.53V117.322C27.5476 117.733 27.8214 118.006 28.2321 118.006C28.6427 118.006 28.9165 117.733 28.9165 117.322V112.53C28.9165 112.256 29.0533 111.983 28.9165 111.983H35.3499C35.2131 111.983 35.7606 112.256 35.7606 112.53V117.322C35.7606 117.733 36.0343 118.006 36.445 118.006C36.8556 118.006 37.1294 117.733 37.1294 117.322V112.53C37.1294 112.256 36.3081 111.983 36.1712 111.983H42.6047C42.4678 111.983 42.6047 112.256 42.6047 112.53V117.322C42.6047 117.733 42.8784 118.006 43.2891 118.006C43.6997 118.006 43.9735 117.733 43.9735 117.322V112.53C43.9735 112.256 43.6998 111.983 43.5629 111.983H49.9963C49.8595 111.983 49.4488 112.256 49.4488 112.53V117.322C49.4488 117.733 49.7225 118.006 50.1332 118.006C50.5438 118.006 50.8176 117.733 50.8176 117.322V112.53C50.8176 112.256 50.9545 111.983 50.8176 111.983H57.2511C57.1142 111.983 57.6617 112.256 57.6617 112.53V117.322C57.6617 117.733 57.9355 118.006 58.3461 118.006C58.7568 118.006 59.0305 117.733 59.0305 117.322V112.53C59.0305 112.256 58.3462 111.983 58.2093 111.983H64.6427C64.5058 111.983 64.5058 112.256 64.5058 112.53V117.322C64.5058 117.733 64.7796 118.006 65.1902 118.006C65.6009 118.006 65.8746 117.733 65.8746 117.322V112.53C65.8746 112.256 65.6009 111.983 65.464 111.983H71.8975C71.7606 111.983 71.3499 112.256 71.3499 112.53V117.322C71.3499 117.733 71.6237 118.006 72.0343 118.006C72.445 118.006 72.7188 117.733 72.7188 117.322V112.53C72.7188 112.256 72.9925 111.983 72.8556 111.983H79.2891C79.1522 111.983 79.5629 112.256 79.5629 112.53V117.322C79.5629 117.733 79.8366 118.006 80.2473 118.006C80.6579 118.006 80.9317 117.733 80.9317 117.322V112.53C80.9317 112.256 80.2473 111.983 80.1104 111.983H86.5439C86.407 111.983 86.407 112.256 86.407 112.53V117.322C86.407 117.733 86.6807 118.006 87.0914 118.006C87.502 118.006 87.7758 117.733 87.7758 117.322V112.53C87.7758 112.256 87.6389 111.983 87.502 111.983H93.9355C93.7986 111.983 93.2511 112.256 93.2511 112.53V117.322C93.2511 117.733 93.5248 118.006 93.9355 118.006C94.3461 118.006 94.6199 117.733 94.6199 117.322V112.53C94.6199 112.256 94.8937 111.983 94.7568 111.983H101.19C101.053 111.983 101.464 112.256 101.464 112.53V117.322C101.464 117.733 101.738 118.006 102.148 118.006C102.559 118.006 102.833 117.733 102.833 117.322V112.53C102.833 112.256 102.285 111.983 102.148 111.983H108.582C108.445 111.983 108.308 112.256 108.308 112.53V117.322C108.308 117.733 108.582 118.006 108.993 118.006C109.403 118.006 109.677 117.733 109.677 117.322V112.53C109.677 112.256 109.54 111.983 109.403 111.983H115.837C115.7 111.983 115.152 112.256 115.152 112.53V117.322C115.152 117.733 115.426 118.006 115.837 118.006C116.247 118.006 116.521 117.733 116.521 117.322V112.53C116.521 112.256 116.932 111.983 116.795 111.983H123.365V120.197H88.0496C87.6389 120.197 87.3652 120.471 87.3652 120.882C87.3652 121.292 87.6389 121.566 88.0496 121.566H123.228V142.102H21.9355V121.566H22.0724ZM123.365 110.613H22.0724V90.0772H123.365V110.613ZM49.5857 172.496L45.6161 160.037H82.8481L80.521 177.835H57.5249C53.829 177.698 50.5438 175.919 49.5857 172.496ZM81.753 177.698L84.0799 159.9H89.6922L85.0381 177.698H81.753ZM95.1674 172.496C94.0724 175.919 90.9241 177.835 87.2283 177.835H86.407L91.061 160.037H99.137L95.1674 172.496ZM115.015 157.162H29.6009C25.3575 157.162 21.9355 153.055 21.9355 148.811V144.84H123.228V148.811C123.365 153.055 119.259 157.162 115.015 157.162ZM123.365 87.3391H22.0724V76.3864H123.365V87.3391ZM127.198 73.6483H17.4184C13.4488 73.6483 9.61612 70.9101 9.61612 66.9398V55.8502H81.4792C81.8899 55.8502 82.1637 55.5764 82.1637 55.1657C82.1637 54.755 81.8899 54.4812 81.4792 54.4812H9.61612V42.1594H16.4602V51.0585C16.4602 51.4692 16.734 51.743 17.1446 51.743C17.5553 51.743 17.829 51.4692 17.829 51.0585V42.1594H23.3043V51.0585C23.3043 51.4692 23.5781 51.743 23.9887 51.743C24.3994 51.743 24.6732 51.4692 24.6732 51.0585V42.1594H31.5173V51.0585C31.5173 51.4692 31.791 51.743 32.2017 51.743C32.6123 51.743 32.8861 51.4692 32.8861 51.0585V42.1594H38.3614V51.0585C38.3614 51.4692 38.6351 51.743 39.0458 51.743C39.4564 51.743 39.7302 51.4692 39.7302 51.0585V42.1594H45.2055V51.0585C45.2055 51.4692 45.4792 51.743 45.8899 51.743C46.3005 51.743 46.5743 51.4692 46.5743 51.0585V42.1594H53.4184V51.0585C53.4184 51.4692 53.6922 51.743 54.1028 51.743C54.5135 51.743 54.7872 51.4692 54.7872 51.0585V42.1594H60.2625V51.0585C60.2625 51.4692 60.5363 51.743 60.9469 51.743C61.3576 51.743 61.6313 51.4692 61.6313 51.0585V42.1594H68.4754V51.0585C68.4754 51.4692 68.7492 51.743 69.1598 51.743C69.5705 51.743 69.8443 51.4692 69.8443 51.0585V42.1594H75.3195V51.0585C75.3195 51.4692 75.5933 51.743 76.004 51.743C76.4146 51.743 76.6884 51.4692 76.6884 51.0585V42.1594H82.1637V51.0585C82.1637 51.4692 82.4374 51.743 82.8481 51.743C83.2587 51.743 83.5325 51.4692 83.5325 51.0585V42.1594H90.3766V51.0585C90.3766 51.4692 90.6503 51.743 91.061 51.743C91.4716 51.743 91.7454 51.4692 91.7454 51.0585V42.1594H97.2207V51.0585C97.2207 51.4692 97.4944 51.743 97.9051 51.743C98.3157 51.743 98.5895 51.4692 98.5895 51.0585V42.1594H104.065V51.0585C104.065 51.4692 104.339 51.743 104.749 51.743C105.16 51.743 105.434 51.4692 105.434 51.0585V42.1594H112.278V51.0585C112.278 51.4692 112.551 51.743 112.962 51.743C113.373 51.743 113.647 51.4692 113.647 51.0585V42.1594H119.122V51.0585C119.122 51.4692 119.396 51.743 119.806 51.743C120.217 51.743 120.491 51.4692 120.491 51.0585V42.1594H127.335V51.0585C127.335 51.4692 127.609 51.743 128.019 51.743C128.43 51.743 128.704 51.4692 128.704 51.0585V42.1594H134.179V54.4812H89.829C89.4184 54.4812 89.1446 54.755 89.1446 55.1657C89.1446 55.5764 89.4184 55.8502 89.829 55.8502H134.179V66.9398C134.316 70.9101 131.304 73.6483 127.198 73.6483ZM134.316 40.7904H9.75296V24.3614H134.316V40.7904ZM118.574 -20.9552C118.164 -20.9552 117.89 -20.6814 117.89 -20.2706V-12.6038H2.90886V-90.6413H142.529V-12.6038H119.259V-20.2706C119.259 -20.5444 118.985 -20.9552 118.574 -20.9552ZM9.75296 -120.487C9.75296 -123.362 11.8062 -126.237 14.8176 -126.237H130.072C132.947 -126.237 135.685 -123.499 135.685 -120.487V-118.023H9.75296V-120.487ZM5.37276 -115.285H139.244C140.749 -115.285 142.392 -114.053 142.392 -112.547V-96.1177H99.9583C99.5477 -96.1177 99.2739 -95.8438 99.2739 -95.4331C99.2739 -95.0224 99.5477 -94.7486 99.9583 -94.7486H142.392V-92.0104H2.77201V-94.7486H89.829C90.2397 -94.7486 90.5134 -95.0224 90.5134 -95.4331C90.5134 -95.8438 90.2397 -96.1177 89.829 -96.1177H2.77201V-112.547C2.90889 -114.053 3.86706 -115.285 5.37276 -115.285ZM2.90886 19.5696V-11.2347H19.3347V0.6763C19.3347 1.08702 19.6085 1.36084 20.0191 1.36084C20.4298 1.36084 20.7035 1.08702 20.7035 0.6763V-11.2347H26.1788V-3.56783C26.1788 -3.15711 26.4526 -2.88329 26.8632 -2.88329C27.2739 -2.88329 27.5476 -3.15711 27.5476 -3.56783V-11.2347H33.0229V-3.56783C33.0229 -3.15711 33.2967 -2.88329 33.7073 -2.88329C34.118 -2.88329 34.3918 -3.15711 34.3918 -3.56783V-11.2347H41.2359V-3.56783C41.2359 -3.15711 41.5096 -2.88329 41.9203 -2.88329C42.3309 -2.88329 42.6047 -3.15711 42.6047 -3.56783V-11.2347H64.5058V0.6763C64.5058 1.08702 64.7796 1.36084 65.1902 1.36084C65.6009 1.36084 65.8746 1.08702 65.8746 0.6763V-11.2347H79.5629V-3.56783C79.5629 -3.15711 79.8366 -2.88329 80.2473 -2.88329C80.6579 -2.88329 80.9317 -3.15711 80.9317 -3.56783V-11.2347H93.2511V-3.56783C93.2511 -3.15711 93.5248 -2.88329 93.9355 -2.88329C94.3461 -2.88329 94.6199 -3.15711 94.6199 -3.56783V-11.2347H117.89V-3.56783C117.89 -3.15711 118.164 -2.88329 118.574 -2.88329C118.985 -2.88329 119.259 -3.15711 119.259 -3.56783V-11.2347H142.529V19.5696C142.529 21.0756 140.886 21.6232 139.38 21.6232H5.50965C3.86707 21.6232 2.90886 21.0756 2.90886 19.5696Z" fill="black" />
</svg>